<svg xmlns="http://www.w3.org/2000/svg" width="389.9" height="47.335" viewBox="0 0 389.9 47.335"><defs><style>.a{fill:#f08300;}.b{fill:#009f73;}.c{fill:#0073bd;}.d{fill:#727171;}</style></defs><g transform="translate(0.2 0.019)"><path class="a" d="M77,.1a.349.349,0,0,0-.2-.1c-.4-.1-.7.2-1.2.6l-.4.3c-1.5.8-2.6,4.4-2.8,5.9a.31.31,0,0,0-.2.1A6.4,6.4,0,0,0,68,3.7c.7,2.6,2.9,10.3,6,9.7C75.5,13,78.7,6.6,78.7,3V2.9C78.7,1,77.8.4,77,.1Z"/><path class="b" d="M97.4,39.7c-3.8.2-5,0-8.7,1.2a3.316,3.316,0,0,0-1.4,1c.1.8-.4,2,.3,2.3a.31.31,0,0,0,.1.2c.2.2.4.2.7.5.1.2.3,0,.4.1s.1.2.2.2c.4.2.7.1,1.1.3a1.087,1.087,0,0,0,.5.1.451.451,0,0,1,.3.3c.7.3,1.3,0,2,0,2.1,0,1.7-.2,3.8-.3,1.8,0,3.5.2,5.2.2a27.15,27.15,0,0,0,2.9-.1c1.7-.1,3.4.2,5.1.2.8,0,1.8.3,2.7.4a12.187,12.187,0,0,1,2.7,0,2.769,2.769,0,0,1,.9.1,4.116,4.116,0,0,0,.8.3,4.794,4.794,0,0,0,2.3-.5,3.942,3.942,0,0,0,1.4-.5,1.234,1.234,0,0,0,.5-.8,3.376,3.376,0,0,0,.2-2h-.2c-.1-.1-.1-.4-.2-.4a3.553,3.553,0,0,0-1-.2c-.4-.1-.9-.3-1.4-.4C116.5,41.2,104.5,39.4,97.4,39.7Z"/><path class="c" d="M60.8,41.1c.4.1.8.1,1,.3s-.2.5-.2.8c0,.6.2,1.2.2,1.8,0,.1,0,.2-.2.3a1,1,0,0,1-.5.4c-.5.3-1.2.2-1.8.4a20.024,20.024,0,0,1-2.4.4,32.4,32.4,0,0,1-4.4-.2,4.678,4.678,0,0,0-1.7.2,4.517,4.517,0,0,1-2,.1c-3.5-.1-7-.2-10.5-.2-.6,0-1.3.1-1.9.1-2.8.2-5.7.1-8.5.2-1,0-2,.1-3,0H23.3c-2.1.1-4.2.2-6.4.1H14.4c-2.3.1-4.7.5-7.1.4a12.792,12.792,0,0,1-5-1.3A6.194,6.194,0,0,1-.2,42.6a3.111,3.111,0,0,1,1.7-.9c1.6-.4,3-.7,4.6-1,1.3-.2,2.6-.3,3.9-.5a323.554,323.554,0,0,1,43.4-.5C56.1,40.2,58.4,40.6,60.8,41.1Z"/><path d="M91.4,25.2v.2c.2.4.5.5.8.8h1c0-.2.2,0,.2-.2.2,0,.6-.1.7-.4h.2c.2-.3.4-.5.7-.5l1.2-1.5a.764.764,0,0,1,.2-.5,13.817,13.817,0,0,1,.8-2.7c0-.3.2-.7.1-1,.1,0,.2,0,.2-.1-.1-.4.2-.6.3-.8.2,0,.3,0,.4-.2v-.2a1.693,1.693,0,0,1,1.2.7h.5c0,.2.1.2.2.3a5.462,5.462,0,0,1,1.8.1c0,.3.4.2.5.5a3.178,3.178,0,0,0,.3.9.367.367,0,0,1-.1.3c.2.3.4.8.1,1.1a5.853,5.853,0,0,0,.2,1.3c-.2.2-.1.5-.1.7a5.769,5.769,0,0,1,.3,1.4c.4.5.3,1.1.6,1.6v.6c.2,0,0,.3.2.3a9.908,9.908,0,0,1-.2,1.8l-.3.3v.2c-.1,0-.2,0-.2-.1-.2.3-.5.5-.7.8-.2-.1-.3.1-.4.1-.2,0,0,.3-.2.3a.764.764,0,0,0-.5.2c-.2.1-.9-.1-1.1.1l-.1-.1a.52.52,0,0,1-.4.2c0-.1,0-.2-.1-.2a.807.807,0,0,1-.9.4c-.1-.2-.1-.3-.3-.4a5.257,5.257,0,0,0-.4-1.7c.1,0,.1-.1.1-.2a2.354,2.354,0,0,1-.2-.8c-.2-.4-.3-.9-.6-1.1.1-.1-.2-.2-.1-.3-.2-.2-.2-.3-.4-.4-.2,0-.2.1-.2.2-.1.4-.5.8-.6,1.2l-.1-.1c-.1.3-.3.4-.3.7-.2.1-.2.3-.4.4v.2c-.6.5-.9,1.4-1.6,1.7-.2.4-.6.4-.8.8a3.553,3.553,0,0,0-1,.2c-.2-.1-.5-.3-.7-.1,0-.1-.1-.1-.2-.1l-.1.1c-.2-.2-.5,0-.8-.1A13.9,13.9,0,0,0,88,31c-.2,0,0-.3-.2-.3a.367.367,0,0,1-.3-.1c0-.3.1-.5-.2-.7l.1-.1c0-.1-.1-.1-.2-.1-.1-.6-.4-1.1-.5-1.7l-.2-.2a1.884,1.884,0,0,0-.2-.8c-.1-.4.3-.7.1-1.1a.367.367,0,0,1,.1-.3,2.879,2.879,0,0,1,.1-1.3c-.1,0-.1-.1-.1-.2a2.537,2.537,0,0,0,.2-1.2c.1-.3.3-.6.4-.9l-.1-.1c.2-.2.1-.5.4-.7,0-.1,0-.2-.1-.2,0-.2.2-.3.3-.4a4.129,4.129,0,0,1,.7-1.1l-.1-.1a1.159,1.159,0,0,1,1-.4,1.9,1.9,0,0,1,.9.3c.1.2,0,.4.2.7h.2v.2a.1.1,0,0,0,.1.1,2.92,2.92,0,0,1,.2.9c0,.1.1.1.2.1-.1.2.2.4.2.6-.2.2,0,.5-.1.8.2.5.2,1.1.4,1.6C91.1,24.5,91.2,24.9,91.4,25.2Z"/><path d="M52.4,28.8s.4.3.5.4a1.205,1.205,0,0,0,.5.5l.4.2.1.3.3.3c.3.1.4-.1.7.3.1,0,.2,0,.2.1l.1-.1a1,1,0,0,0,.5.4,1.613,1.613,0,0,1,.9.3c.1,0,.1.2.1.1.4.1.6.3.8.1.1,0,.2,0,.2.1l.1-.1c.2-.1.3.2.5.1.1,0,.1.1.1.2h.2c.2.2,1.2-.1,1.5.1a15.968,15.968,0,0,0,3.5-.1c0-.2.3,0,.3-.2l.1.1c.4.1.9-.4,1.3-.2l.2-.2c.2-.1.5.3.8,0,0,.1.1.1.2.1v-.2c.3-.2.8-.1,1-.4h.4l.2-.2c.6-.1,1.1-.6,1.7-.7.1-.1.3-.1.4-.3h.3l.3-.3c.3.1.6-.4,1-.5,0-.1,0-.2.1-.2l.1.1c.2-.1.2-.1.3-.3.3,0,.5-.4.7-.6h.2l.2-.2h.2c.3-.2.5-.6.9-.7,0-.1,0-.2.1-.2.2.1.2-.2.3-.3s.4-.3.5-.2c0,.2.3-.4.3-.3.1.1.5-.9.5-1l-.9-2.4c-.3.5-1.6,2.1-2.2,2.2,0,.5-.6.5-.9.8,0,.1,0,.2-.1.2-.3.1-.5.4-.7.5,0-.1-.1-.1-.2,0s-.3.2-.4.4c-.3.1-.4.4-.6.6l-.1-.1c-.4.4-1,.3-1.2.8a12.665,12.665,0,0,1-1.8.6c-.1,0-.2,0-.2-.1-.1.2-.6,0-.6.2a12.1,12.1,0,0,0-1.9.1c0-.2-.3,0-.3-.2-.5.2-1.1-.1-1.7-.1-.1-.1-.3-.1-.4-.3a1.18,1.18,0,0,1-1.2-.3c-.3,0-.6-.3-.9-.4v-.2l-.2-.2c0-.3.3-.3.6-.4.2-.3.8-.2,1-.5,0-.1.3-.3.3-.4.1-.2.2-.4.3-.4.3-.2.1-.4.6-.5,0-.1.3-.3.2-.4.4-.3.4-.5.6-1.1a1.905,1.905,0,0,0,.5-1c.1-.1,0-.5.2-.6.1-.7-.2-1.1-.2-1.7l-.2-.2c0-.3-.2-.5-.1-.8-.3-.3-.3-.4-.6-.7l-.2-.2h-.2c-.1-.2-.4-.3-.4-.5a7.539,7.539,0,0,1-1.3-.6l-.1.1-.1-.1-.2.2c0-.3-.3,0-.4-.2a.926.926,0,0,0-.7.1c-.7-.2-1.4.1-2.1-.1,0,.2-.4-.1-.4.2-.2.1-.5.1-.7.2h-.3a1.614,1.614,0,0,1-1.3.6c-.2,0,0,.3-.2.3h-.2A12.165,12.165,0,0,1,52.4,20c0,.1-.2.2-.1.4,0,.1-.1.1-.2.1a.52.52,0,0,1-.2.4c0,.1,0,.2.1.2a.451.451,0,0,1-.3.3c-.1.4-.1.8-.4,1a13.8,13.8,0,0,1-.3,2,9.151,9.151,0,0,1,.1,1.6c.3.2-.1.2.1.5.1,0,.1.2.1.3.1.2.5.4.4.6,0,.1.2.2.3.2.1.2-.2.4.1.5,0,.1.4,0,.3.2Zm7.2-6.4c-.2.1,0,.3-.2.4l.1.1a4.1,4.1,0,0,1-1.8,2.8c-.1,0-.2,0-.2-.1,0-.2-.2-.5-.1-.7,0-.1-.1-.1-.2-.1.2-.2-.2-.4,0-.7-.2,0-.2-.1-.2-.2.3-.2.1-.7.4-1l-.1-.1a3.039,3.039,0,0,1,.5-.7v-.2a4.812,4.812,0,0,1,1.6-.8c.1,0,.2,0,.2.1C60,21.6,59.7,22,59.6,22.4Z"/><path d="M79,21.4v.4c.8.7.6,2,1.1,2.9-.2.3-.1.7-.2,1a.769.769,0,0,0,.3.2c-.2.7.3,1.3.2,2a.769.769,0,0,1-.2.3c0,.1,0,.3.2.3l-.1.2.1.1-.1.2c.1,0,.2.1.2.3-.2.3.2.7-.2,1a.4.4,0,0,1,.2.4c-.4.3-.2.9-.5,1.3l.1.1-.1.2-.1-.1c-.1,0-.1.1-.1.3.1.3.4.5.2.8l.1.1a1.524,1.524,0,0,0-.6,1l-.3.3a.6.6,0,0,1,.1.4c-.2.3-.4.5-.6.8,0,.1.1.4-.1.5l.1.1a2.471,2.471,0,0,1-.4.9c.1,0,.1.1.1.3-.4.3-.8.6-.7,1.1-.2.4-.6.5-.8,1,.1.3-.4.4-.4.6,0,.3-.4.2-.2.4l.1.1h-.2c-.1.3-.1.3-.4.4,0,.1,0,.3-.1.3-.2.2-.3.4-.6.7.1.1-.4.4-.3.4a.623.623,0,0,0-.3.5c-.1,0-.3,0-.3.1v.2c-.1.1-.1.1-.3.1-1,1.1-2.4,1.6-3.4,2.7a2.994,2.994,0,0,0-.8.4c-.3.1-.2.5-.4.4,0-.1-.3.1-.5.1a1.167,1.167,0,0,1-1,0c0-.1-.1-.1-.3-.2l-.1.1c-.1-.1-.4-.4-.5-.4-.1-.1.1-.3,0-.3l.1-.1c0-.1-.2-.2-.3-.2-.2-.3.3-.1.2-.3h-.5c-.1-.3-.4-.3-.5-.5,0-.3.6-.3.6-.5.3,0,.2,0,.4-.1l.1-.3c.3-.1.2-.3.4-.3,0,.1.1,0,.2,0s.3,0,.3-.1a.4.4,0,0,1,.2-.4h.3c.6-.5.2-.2.8-.8v-.3c.1-.1.2-.4.4-.5,0,.1,0,.3.1.3.4-.2.2-.4.1-.7a.769.769,0,0,1,.3-.2c0,.1.2,0,.1,0,0,.1.1-.3.3-.3.3-.5.1.1.6-.8.1-.1.3-.2.4-.3,0,0,.3-.1.2-.3,0-.1,0-.1-.2,0,.2-.3.6-.6.6-.9.4.2.1-.4.3-.4-.1.1-.3-.1-.3,0h.4c.3-.2-.4-.2-.1-.5,0-.1,0-.2-.2-.2,0-.1,0-.2.1-.2l.1.1c.1-.1-.1-.6.1-.7v-.4c.4-.3.2-.2.3-.6l-.1-.1c0,.1.3-.1.1-.1v-.3c.3-.1.4-1,.4-1.3,0,.3-.3-.6,0-.5.4-.5.1-1.3.2-1.9-.3-.1.2-.3.1-.5-.1,0-.3,0-.3-.1a.769.769,0,0,0,.2-.3c0-.1,0-.3-.1-.2,0-.1,0-.3.1-.3,0-.1,0-.3-.2-.2a.769.769,0,0,0,.2-.3c0-.1-.1-.1-.3-.1.1-.5-.5-.9-.3-1.5-.1,0-.1-.1-.1-.2.3-.4-.1-1,.1-1.4-.3-.1-.2-.4-.2-.6.1-.1-.2-.3-.2-.4a9.512,9.512,0,0,1-.4-1.8c-.2.2-.4-1.8-.7-2.6-.3-.5-.1-1.1-.3-1.6.1,0,.3,0,.3-.2-.2-.4.2-.6.3-1,.3,0,.5-.2.8,0,.3-.2.1-.4.1-.6.5-.1,1-.1,1.5-.2,0,.1,0,.3.2.3.4-.1.6.2,1,.2,0,.1,0,.3.2.3a1.072,1.072,0,0,1,.6.2c.1,0,.3,0,.3-.2l.2.1.1-.1a.6.6,0,0,0,.4.1c.2.1.2.5.5.4A20.266,20.266,0,0,0,79,21.4Z"/><path d="M19,23.9c0-.2-.4-.3-.5-.3s-.4.3-.5.1a1.1,1.1,0,0,1-.5.5,1,1,0,0,1-.4.1c-.1.3-.1.4.2,1.2.1,0,.3.8.4.8-.1-.3.4.6.5.7h.2c.1,0,0,.1,0,.2l.4.3c0,.1.1.1,0,.3.3,0,.5.2.8.3.1,0,0,.1,0,.2.1,0,.2.1.2,0,.2,0,.1.2.1.3H20c0,.1.2.2.2.2.3.4,1.6.9,1.9,1.3l.1-.1c.1.2.7.3.7.5l.1-.1a8.338,8.338,0,0,0,1.2.4c.1-.1-.1-.2.1-.3a3.171,3.171,0,0,0,.6.5,1.759,1.759,0,0,1,.6.1c.3.4,1,.1,1.5.3l.2.2.1-.1.1.1c.3-.1.4,0,.6-.2l.1.1.1-.1c.1.1.1.1.1.2a1.4,1.4,0,0,0,1.1,0c0,.1.1.1.2.1.1-.1.1-.1.3-.1.3.1.3.2.6.1v.1a1.8,1.8,0,0,1,1-.1c.1-.2.3.1.3-.1l.1.1c.3-.2.8-.1,1.1-.1v.1c.1-.1.1,0,.1,0,.3-.1.9-.1,1.1-.3.4.1.3.2.8.1.1,0,.3.1.4.1a.917.917,0,0,1,1.1-.1,8.428,8.428,0,0,0,1.4-.6c.1,0,.2.1.3.1.1-.1.2,0,.3-.2a6.721,6.721,0,0,0,1.2-.6c0,.1.3-.1.3,0,.1-.1.1-.1.1-.2.2.1.3-.2.5-.1.1-.1.1-.1.1-.2.3-.1.2-.2.5-.3.3-.2.6-.8,1.2-1,0-.2.4-.3.5-.5,0-.1.1-.1.2,0l-.1-.1c.1-.1.1-.3.2-.2,0-.1.2-.3.1-.3.3-.2.3-1,.7-1,0-.1,0-.1.1-.2.2-.2.1-.6.2-.7,0-.1,0-.1.1-.1a13.044,13.044,0,0,0,.3-1.3c-.1,0,0-.1,0-.2.1,0,.1-.1.2-.2-.1,0,0-.1,0-.2l.1-.1c-.2,0,0-.3-.1-.3l.1-.1c-.1-.4.1-.8-.1-1.2l.1-.1a.483.483,0,0,1,0-.7c-.1-.1,0-.2,0-.3-.2-.1,0-.3-.1-.4.1-.3-.2-.5,0-.8a1.332,1.332,0,0,0-.3-.5.367.367,0,0,1,.1-.3c-.1,0-.2,0-.2-.1.1-.2,0-.3,0-.5-.2,0-.1-.2-.1-.3a2.567,2.567,0,0,0-.5-1.2c.1-.2-.1-.9-.1-1.1l-.2-.1c-.1-.2-.2-.3-.3-.5v-.2c-.1,0-.2,0-.2-.1v-.2l.3.7c-.2-.1-.2-.3-.2-.6a8.049,8.049,0,0,0-.9-1.4c-.2.1,0-.3-.2-.2a1.649,1.649,0,0,0-.8-1v-.2h-.2c-.1,0-.1-.1-.1-.2-.6-.4-2.6-.6-2.9-1.2-.2,0-.4-.1-.5.1l-.2-.2c-.5.3-.9-.2-1.3-.4H36c-.2-.3-.4,0-.6,0a.367.367,0,0,0-.3-.1c-.5.2-.9,0-1.3.5V10l1,1.9a18.649,18.649,0,0,0,.5,1.9c.1,0,.2.2.3.4v.2c.1.2.3.5.4.7-.1,0-.1.1-.1.2.1.3.1.7.2,1.1.1.1,0,.2.1.4l-.1.2a.483.483,0,0,0,0,.4c.1.4,0,.1.3.3-.2.3.2.8-.1,1.1.1.1.1-.1.2.1,0,.1,0,.1-.1.2,0,.1,0,.1.1.1.1.2-.1.3,0,.5.1,0,0,.3.1.3,0,.2.3.3,0,.4-.1,0,0,.4-.1.6.1.1,0,.5,0,.6.1,0,.1-.1.1,0s0,.1-.1.2c.1,0,.1.2,0,.3,0,.3-.2.4-.3.7-.1.6.2,1-.2,1.2.1.1,0,.3-.1.4s-.1.3-.2.4a4.875,4.875,0,0,0-.3.7c-.2.1-.3.3-.5.4,0,.1,0,.1-.1.2,0,.1-.1.1-.2,0-.1.2-.7.4-.7.6v.1c-.3.1-.4.2-.7.3-.3.2-.6.2-.9.4-.3-.1-.6.1-.9.1-.1.1-.2.1-.4.2-.2,0-.4.1-.5,0-.2,0-.1.2-.3.2H30v-.1c-.2.1-.4,0-.7.1v-.1c-.2.1-.4,0-.6.1a2.787,2.787,0,0,0-1-.1c0-.1,0-.1-.1-.1l-.1.1c0-.1-.7,0-.7,0h-.2v-.1l-.1.1c-.1-.1-1-.2-1.2-.4-.2.2-.3.1-.5,0a6.962,6.962,0,0,1-1.7-.4L23,27a.725.725,0,0,1-.8-.2.367.367,0,0,1-.3-.1c-.1-.2-.7-.2-.8-.4a1.4,1.4,0,0,1-.4-.4c-.2.1-.7-.5-.8-.5h-.3l-.1-.3-.4-.3C19.2,23.9,19,24.1,19,23.9Z"/><path d="M25.8,11.3h.4c.6.6,1.7.4,2.5.8.3-.2.6-.1.9-.2l.2.2c.7-.2,1,.1,1.6.1a.769.769,0,0,0,.3-.2c.1,0,.2,0,.2.1l.2-.1.1.1.2-.1c0,.1.1.1.2.1.3-.2.5.1.8-.2.1.1.2.1.3.2.3-.3.5,0,.9-.1l.1.1.2-.1h-.2c0-.1.2-.1.3-.1.2.2.3.4.6.2l.1.1c.2-.1-1.4-.2,1.1-.3.2-.1.2-.1.3-.1.1.1.2.2.3.2l.9-.3c.1,0,.3.2.5,0l.1.1a2.769,2.769,0,0,0,.9-.1c0,.1-.2-.1-.1-.1.4-.2.8-.4,1.1-.1.4,0,.6-.3,1-.3.1.2.5-.2.7-.1s.2-.2.3,0v.1c.1-.1.1-.1.1-.2a.749.749,0,0,0,.5-.1.187.187,0,0,0,.3,0c.1.1.3.1.6.1,0,.1.3-.1.2,0,.2,0,.3-.1.5,0,.1-.1.1-.2.2-.1l.1.1c.1,0,.1,0,.2-.1,1.3-.1,2-.7,3.3-.7.2-.1.5-.2.7-.3s.4.2.5-.1c-.1-.1.3-.2.3-.2.3,0,.5-.6.6-.8-.1-.1,0-.1,0-.3h.2c0-.1-.1-.8,0-.9,0-.1-.3-.1-.2-.1l-.1-.1c0-.2.2-.3.2-.4-.1-.3-.3,0-.5-.2l.2-.3c0-.2-.5-.4-.7-.5-.1.2-.1.1-.3.2L49.6,6c-.2.1-.4,0-.4.1.1.1-.1.1-.1.1-.1.2-.1.2-.2.2a.367.367,0,0,0-.3-.1c-.1.1-.1.1-.1.2a5.06,5.06,0,0,1-2.2-.1c-.2,0-.2,0-.3.1.1.1-.1.2,0,.1.1.1-.3-.1-.3,0-.5,0-1.6.1-1.4,0-.3,0-.7.1-.9,0-.1.3-.4-.2-.5,0,.2,0-.2-.1-.1,0v.1c-.3.1-.3-.2-.6-.1-.1,0-.2-.1-.1-.2-.1,0-.2-.1-.2,0l.1.1c-.2.1-.4-.3-.6-.1-.1,0-.2-.1-.3-.1a2.153,2.153,0,0,1-1.1.2l-.1-.1c.1,0-.2.2-.1.1h-.2a1.672,1.672,0,0,1-1.2.1c.2.1-.4-.4-.4-.2-.6.2-1.2-.1-1.8-.1,0-.2-.3.1-.5,0,0-.1.1-.2,0-.2-.1.1-.3,0-.4.1-.1,0-.2,0-.2-.1a.367.367,0,0,0-.3.1c-.1,0-.2,0-.2-.1-.1.1-.3.2-.4.3-.1,0-.1-.1-.1-.2-.5.1-.8-.4-1.3-.2,0-.1-.1-.1-.2-.1-.4.3-1,0-1.4.2-.1-.2-.3-.1-.6-.1-.5,0-.6-.3-.7-.3a7.719,7.719,0,0,0-1.5-.2c.2-.2-1.6-.2-2.3-.4-.4-.2-1,0-1.4-.1a.215.215,0,0,1-.2.2c-.3-.1-.5.2-.9.3-.1.2-.3.3-.2.5-.2.2-.2.3-.3.3-.1.5-.2.4-.3.8.1,0,.2,0,.2.1-.1.3.1.5,0,.8.1,0,.2,0,.2.1-.1.2,0,.3.1.5a.215.215,0,0,1-.2.2l.2.2-.1.1a.187.187,0,0,1,0,.3c.1.1.4.1.3.4A13.045,13.045,0,0,0,25.8,11.3Z"/><path class="d" d="M146.2,24.7c.3-.3,6.5-8.4,6.5-8.4l-2.8-4.1a32.093,32.093,0,0,1-4,.6c-1.6,0-9.9-.3-9.9-.3l.7,3.6s8.2-.5,9.9-.6c-2.8,5.3-11.9,19-11.9,19l2.5,1s2.9-3.3,7.3-8.7a46.7,46.7,0,0,1,5.6,8.2l.2.3,3-4.5-.1-.1A75.349,75.349,0,0,0,146.2,24.7Z"/><path class="d" d="M155,22.1c-2.4-.1-5.2-.3-5.2-.3l.3,4s4.5-.8,5-.9c.3,6,.3,17.8.3,17.8l3.5-1.7v-.1c0-1.1,1.1-30.3,1.1-30.3l-5.6-1.1C154.5,9.4,154.8,13.8,155,22.1Z"/><path class="d" d="M162.5,44.6l3.7-2,1.3-33.8-6.1-.5C161.5,8.3,162.5,38.5,162.5,44.6Z"/><path class="d" d="M345.8,44.6l3.9-2L351,8.7l-6.3-.5C344.7,8.3,345.8,38.5,345.8,44.6Z"/><path class="d" d="M313.1,8.7l-6.3-.5s1,30.2,1.1,36.3l3.9-2,.7-17.7c2,.4,5.9.9,5.9.9.1-1.2.3-3.8.3-3.8s-4.1.3-6.1.5Z"/><path class="d" d="M177.9,25.1s8.7-4,12.7-6.1c3.5,2,9.4,5.4,11.4,6.5l.2.1,2.1-4.2s-9.8-3.7-10.6-4c.7-.3,8-4.1,8-4.1l-3.9-3.5c-3.3,1.4-20.4.5-20.4.5l.3,2.9s12.3.1,13.3.1c-5.2,4.7-15.9,10.5-15.9,10.5Z"/><path class="d" d="M172.3,27.1l1.1,3.2s5.3-.2,13-.3c.8,8.1.9,10.4,1,14.6l5-2.3s.7-9.4.7-12.3h13.7l.3-2.9C188.7,27.8,172.3,27.1,172.3,27.1Z"/><path class="d" d="M385.3,27.1l-.1-3.3s-14.2.7-18.8.5c-.1-.7-.4-9.9-.3-11,9.2-.4,18.5.1,18.5.1l.3-3.4-24.7.1.5,17Z"/><path class="d" d="M375.5,37.7c0-.1.4-8.6.4-8.6l-6.4-.5s.5,7,.7,9.1c-5.6,0-15.2-.3-15.2-.3l.4,3.5s18.9-.4,34.1-.2l.2-3.3C389.6,37.3,383.4,37.6,375.5,37.7Z"/><path class="d" d="M265.8,26l.9-15.7-5.3-.5.2,5.8c-1.8.1-5.4,0-6.7,0l-.1-4.9-5.4-.5,1.5,15.7C250.8,26,259.9,25.7,265.8,26Zm-10.9-7.5c2.2,0,5.4,0,6.7.1l.1,4.7-6.7.1Z"/><path class="d" d="M273.2,14c-1.6-.3-4.2-.8-4.8-.8l.1,3.7,4.8-.4c0,1.1.1,2.4.1,3.6-1.6-.1-4,.1-5.2-.1l-.1,3.2,5.3-.6c0,1.8.1,3.7.2,5.9l3.8-1.6c.2-1.5,1.3-12.7,1.7-18.3L273,8.3C273,10.2,273.1,12.1,273.2,14Z"/><path class="d" d="M262.5,40.5l-.4-2.8c6,.1,14.3-.2,14.3-.2l.9-7.7c-5.1.4-21.8.1-21.8.1l.7,3c2.7,0,13.3-.1,15.6-.1l-.2,2.6c-3.2,0-11.8-.2-15.5-.4l1.7,8.3c6.9-.1,20.2-.1,20.2-.1l.3-3.2C274.4,40.6,266.9,40.5,262.5,40.5Z"/><path class="d" d="M304.1,16.3l-3.4-4a19.953,19.953,0,0,1-4.5.5c-3.9-.1-8.2-.2-10.7-.4l.8,3.8c6.2-.3,11-.7,11-.7-1.7,3-9,12.8-13.6,18.8l2.4,1.1c1.8-1.7,5-5,8.2-8.5a102.461,102.461,0,0,1,7.4,8.2l2.5-4.9c-2.2-1.7-5.7-4-8-5.4C299.4,21.5,302.5,18.1,304.1,16.3Z"/><path class="d" d="M337.6,12.7l.1-2.6c-3.6,0-11.3-.5-13.2-.6L325,13C325.1,12.9,333.8,12.9,337.6,12.7Z"/><path class="d" d="M340.7,18.9l-3.4-3.5a22.4,22.4,0,0,1-4.9.5c-4-.1-7.5-.3-10.2-.3l.8,3.8c3.8-.3,10.5-.9,10.5-.9-2.2,3.5-8.3,11-12.8,16.3l2.5,1.1c2.1-1.9,5.1-4.6,7.9-7.4a94.716,94.716,0,0,1,7.3,7.4l2.6-4.7c-2.4-1.7-5.7-3.8-7.6-4.9C337.4,22.3,340.7,18.9,340.7,18.9Z"/><path class="d" d="M240.3,22.9l-.1-3.1c-2.9.4-14.5.4-18.5.2V17.4c5.6,0,11.7.1,18.3.4v-3c-5.5.2-10.2.4-18.2.2V12.8c4.8.1,12.8.2,18.4,0l.1-2.9c-10.8.2-21.1.3-24.3-.2l.6,13.1C219.8,22.8,230.6,22.7,240.3,22.9Z"/><path class="d" d="M215.7,32.4l.5,2.9c9.6-.3,18.7-.1,18.7-.1s.4,7.3.4,9.4l4.5-2.2,1.2-10S220.8,32.5,215.7,32.4Z"/><path class="d" d="M211.2,26.2l1.1,3.2c17.1-.7,33-.3,33-.3l.3-2.9C227.1,26.8,211.2,26.2,211.2,26.2Z"/></g></svg>