<svg xmlns="http://www.w3.org/2000/svg" width="70.694" height="27.5" viewBox="0 0 70.694 27.5"><defs><style>.a{fill:#fff;}</style></defs><g transform="translate(0.2 0.019)"><g transform="translate(39.422 -0.019)"><path class="a" d="M73.229.05a.2.2,0,0,0-.116-.058c-.232-.058-.407.116-.7.349l-.232.174c-.871.465-1.511,2.556-1.627,3.428A.18.18,0,0,0,70.44,4,3.719,3.719,0,0,0,68,2.141c.407,1.511,1.685,5.984,3.486,5.635.871-.232,2.731-3.951,2.731-6.042V1.677A1.487,1.487,0,0,0,73.229.05Z" transform="translate(-68 0.019)"/></g><path class="a" d="M93.134,39.686a14.982,14.982,0,0,0-5.054.7,1.927,1.927,0,0,0-.813.581c.058.465-.232,1.162.174,1.336a.18.18,0,0,0,.058.116c.116.116.232.116.407.29.058.116.174,0,.232.058s.058.116.116.116c.232.116.407.058.639.174a.632.632,0,0,0,.29.058.262.262,0,0,1,.174.174c.407.174.755,0,1.162,0,1.22,0,.988-.116,2.208-.174,1.046,0,2.033.116,3.021.116a15.773,15.773,0,0,0,1.685-.058c.988-.058,1.975.116,2.963.116.465,0,1.046.174,1.569.232a7.08,7.08,0,0,1,1.569,0,1.608,1.608,0,0,1,.523.058,2.392,2.392,0,0,0,.465.174,2.785,2.785,0,0,0,1.336-.29,2.29,2.29,0,0,0,.813-.29.717.717,0,0,0,.29-.465,1.961,1.961,0,0,0,.116-1.162h-.116c-.058-.058-.058-.232-.116-.232a2.064,2.064,0,0,0-.581-.116c-.232-.058-.523-.174-.813-.232A56.7,56.7,0,0,0,93.134,39.686Z" transform="translate(-36.632 -16.63)"/><path class="a" d="M35.239,40.3c.232.058.465.058.581.174s-.116.29-.116.465c0,.349.116.7.116,1.046,0,.058,0,.116-.116.174a.58.58,0,0,1-.29.232c-.29.174-.7.116-1.046.232a11.634,11.634,0,0,1-1.394.232,18.826,18.826,0,0,1-2.556-.116,2.718,2.718,0,0,0-.988.116,2.624,2.624,0,0,1-1.162.058c-2.033-.058-4.067-.116-6.1-.116-.349,0-.755.058-1.1.058-1.627.116-3.312.058-4.938.116-.581,0-1.162.058-1.743,0h-.93c-1.22.058-2.44.116-3.718.058H8.282c-1.336.058-2.731.29-4.125.232a7.432,7.432,0,0,1-2.9-.755A3.6,3.6,0,0,1-.2,41.175a1.807,1.807,0,0,1,.988-.523c.93-.232,1.743-.407,2.672-.581.755-.116,1.511-.174,2.266-.29a187.974,187.974,0,0,1,25.214-.29C32.508,39.781,33.845,40.013,35.239,40.3Z" transform="translate(0 -16.434)"/><path class="a" d="M89.256,22.225v.116c.116.232.29.29.465.465H90.3c0-.116.116,0,.116-.116.116,0,.349-.058.407-.232h.116c.116-.174.232-.29.407-.29l.7-.871a.444.444,0,0,1,.116-.29,8.026,8.026,0,0,1,.465-1.569c0-.174.116-.407.058-.581.058,0,.116,0,.116-.058-.058-.232.116-.349.174-.465.116,0,.174,0,.232-.116V18.1a.984.984,0,0,1,.7.407h.29c0,.116.058.116.116.174a3.173,3.173,0,0,1,1.046.058c0,.174.232.116.29.29a1.846,1.846,0,0,0,.174.523.213.213,0,0,1-.058.174c.116.174.232.465.058.639a3.4,3.4,0,0,0,.116.755c-.116.116-.058.29-.058.407a3.352,3.352,0,0,1,.174.813c.232.29.174.639.349.93v.349c.116,0,0,.174.116.174a5.756,5.756,0,0,1-.116,1.046l-.174.174v.116c-.058,0-.116,0-.116-.058-.116.174-.29.29-.407.465-.116-.058-.174.058-.232.058-.116,0,0,.174-.116.174a.444.444,0,0,0-.29.116c-.116.058-.523-.058-.639.058l-.058-.058a.3.3,0,0,1-.232.116c0-.058,0-.116-.058-.116a.469.469,0,0,1-.523.232c-.058-.116-.058-.174-.174-.232a3.054,3.054,0,0,0-.232-.988c.058,0,.058-.058.058-.116a1.367,1.367,0,0,1-.116-.465c-.116-.232-.174-.523-.349-.639.058-.058-.116-.116-.058-.174-.116-.116-.116-.174-.232-.232-.116,0-.116.058-.116.116-.058.232-.29.465-.349.7l-.058-.058c-.058.174-.174.232-.174.407-.116.058-.116.174-.232.232v.116c-.349.29-.523.813-.93.988-.116.232-.349.232-.465.465a2.064,2.064,0,0,0-.581.116c-.116-.058-.29-.174-.407-.058,0-.058-.058-.058-.116-.058l-.058.058c-.116-.116-.29,0-.465-.058a8.076,8.076,0,0,0-1.22-.639c-.116,0,0-.174-.116-.174a.213.213,0,0,1-.174-.058c0-.174.058-.29-.116-.407l.058-.058c0-.058-.058-.058-.116-.058-.058-.349-.232-.639-.29-.988l-.116-.116a1.094,1.094,0,0,0-.116-.465c-.058-.232.174-.407.058-.639a.213.213,0,0,1,.058-.174,1.673,1.673,0,0,1,.058-.755c-.058,0-.058-.058-.058-.116a1.474,1.474,0,0,0,.116-.7c.058-.174.174-.349.232-.523l-.058-.058c.116-.116.058-.29.232-.407,0-.058,0-.116-.058-.116,0-.116.116-.174.174-.232a2.4,2.4,0,0,1,.407-.639l-.058-.058a.674.674,0,0,1,.581-.232,1.1,1.1,0,0,1,.523.174c.058.116,0,.232.116.407h.116v.116a.057.057,0,0,0,.058.058,1.7,1.7,0,0,1,.116.523c0,.058.058.058.116.058-.058.116.116.232.116.349-.116.116,0,.29-.058.465.116.29.116.639.232.93C89.082,21.818,89.14,22.051,89.256,22.225Z" transform="translate(-36.239 -7.593)"/><path class="a" d="M51.813,23.929s.232.174.29.232a.7.7,0,0,0,.29.29l.232.116.058.174.174.174c.174.058.232-.058.407.174.058,0,.116,0,.116.058l.058-.058a.58.58,0,0,0,.29.232.937.937,0,0,1,.523.174c.058,0,.058.116.058.058.232.058.349.174.465.058.058,0,.116,0,.116.058l.058-.058c.116-.058.174.116.29.058.058,0,.058.058.058.116h.116c.116.116.7-.058.871.058a9.277,9.277,0,0,0,2.033-.058c0-.116.174,0,.174-.116l.058.058c.232.058.523-.232.755-.116l.116-.116c.116-.058.29.174.465,0,0,.058.058.058.116.058v-.116c.174-.116.465-.058.581-.232h.232l.116-.116c.349-.058.639-.349.988-.407.058-.058.174-.058.232-.174h.174l.174-.174c.174.058.349-.232.581-.29,0-.058,0-.116.058-.116l.058.058c.116-.058.116-.058.174-.174.174,0,.29-.232.407-.349H63.9l.116-.116h.116c.174-.116.29-.349.523-.407,0-.058,0-.116.058-.116.116.058.116-.116.174-.174s.232-.174.29-.116c0,.116.174-.232.174-.174.058.058.29-.523.29-.581l-.523-1.394c-.174.29-.93,1.22-1.278,1.278,0,.29-.349.29-.523.465,0,.058,0,.116-.058.116-.174.058-.29.232-.407.29,0-.058-.058-.058-.116,0s-.174.116-.232.232c-.174.058-.232.232-.349.349l-.058-.058c-.232.232-.581.174-.7.465a7.359,7.359,0,0,1-1.046.349c-.058,0-.116,0-.116-.058-.058.116-.349,0-.349.116a7.031,7.031,0,0,0-1.1.058c0-.116-.174,0-.174-.116-.29.116-.639-.058-.988-.058-.058-.058-.174-.058-.232-.174a.686.686,0,0,1-.7-.174c-.174,0-.349-.174-.523-.232v-.116L56.054,23c0-.174.174-.174.349-.232.116-.174.465-.116.581-.29,0-.058.174-.174.174-.232.058-.116.116-.232.174-.232.174-.116.058-.232.349-.29,0-.058.174-.174.116-.232.232-.174.232-.29.349-.639a1.107,1.107,0,0,0,.29-.581c.058-.058,0-.29.116-.349.058-.407-.116-.639-.116-.988l-.116-.116c0-.174-.116-.29-.058-.465-.174-.174-.174-.232-.349-.407l-.116-.116h-.116c-.058-.116-.232-.174-.232-.29a4.38,4.38,0,0,1-.755-.349l-.058.058-.058-.058-.116.116c0-.174-.174,0-.232-.116a.538.538,0,0,0-.407.058c-.407-.116-.813.058-1.22-.058,0,.116-.232-.058-.232.116-.116.058-.29.058-.407.116h-.174a.938.938,0,0,1-.755.349c-.116,0,0,.174-.116.174H52.8a7.067,7.067,0,0,1-.988.871c0,.058-.116.116-.058.232,0,.058-.058.058-.116.058a.3.3,0,0,1-.116.232c0,.058,0,.116.058.116a.262.262,0,0,1-.174.174c-.058.232-.058.465-.232.581A8.02,8.02,0,0,1,51,21.372a5.316,5.316,0,0,1,.058.93c.174.116-.058.116.058.29.058,0,.058.116.058.174.058.116.29.232.232.349,0,.058.116.116.174.116.058.116-.116.232.058.29,0,.058.232,0,.174.116ZM56,20.211c-.116.058,0,.174-.116.232l.058.058a2.382,2.382,0,0,1-1.046,1.627c-.058,0-.116,0-.116-.058,0-.116-.116-.29-.058-.407,0-.058-.058-.058-.116-.058.116-.116-.116-.232,0-.407-.116,0-.116-.058-.116-.116.174-.116.058-.407.232-.581l-.058-.058a1.766,1.766,0,0,1,.29-.407V19.92a2.8,2.8,0,0,1,.93-.465c.058,0,.116,0,.116.058C56.229,19.746,56.054,19.978,56,20.211Z" transform="translate(-21.454 -7.205)"/><path class="a" d="M73.511,19.808v.232c.465.407.349,1.162.639,1.685-.116.174-.058.407-.116.581a.447.447,0,0,0,.174.116c-.116.407.174.755.116,1.162a.447.447,0,0,1-.116.174c0,.058,0,.174.116.174l-.058.116.058.058-.058.116c.058,0,.116.058.116.174-.116.174.116.407-.116.581a.232.232,0,0,1,.116.232c-.232.174-.116.523-.29.755l.058.058-.058.116-.058-.058c-.058,0-.058.058-.058.174.058.174.232.29.116.465l.058.058a.885.885,0,0,0-.349.581l-.174.174a.349.349,0,0,1,.058.232c-.116.174-.232.29-.349.465,0,.058.058.232-.058.29l.058.058a1.435,1.435,0,0,1-.232.523c.058,0,.058.058.058.174-.232.174-.465.349-.407.639-.116.232-.349.29-.465.581.058.174-.232.232-.232.349,0,.174-.232.116-.116.232l.058.058h-.116c-.058.174-.058.174-.232.232,0,.058,0,.174-.058.174-.116.116-.174.232-.349.407.058.058-.232.232-.174.232a.362.362,0,0,0-.174.29c-.058,0-.174,0-.174.058v.116c-.058.058-.058.058-.174.058-.581.639-1.394.93-1.975,1.569a1.739,1.739,0,0,0-.465.232c-.174.058-.116.29-.232.232,0-.058-.174.058-.29.058a.678.678,0,0,1-.581,0c0-.058-.058-.058-.174-.116l-.058.058c-.058-.058-.232-.232-.29-.232-.058-.058.058-.174,0-.174l.058-.058c0-.058-.116-.116-.174-.116-.116-.174.174-.058.116-.174h-.29c-.058-.174-.232-.174-.29-.29,0-.174.349-.174.349-.29.174,0,.116,0,.232-.058l.058-.174c.174-.058.116-.174.232-.174,0,.058.058,0,.116,0s.174,0,.174-.058a.232.232,0,0,1,.116-.232h.174c.349-.29.116-.116.465-.465v-.174c.058-.058.116-.232.232-.29,0,.058,0,.174.058.174.232-.116.116-.232.058-.407a.447.447,0,0,1,.174-.116c0,.058.116,0,.058,0,0,.058.058-.174.174-.174.174-.29.058.058.349-.465.058-.058.174-.116.232-.174,0,0,.174-.058.116-.174,0-.058,0-.058-.116,0,.116-.174.349-.349.349-.523.232.116.058-.232.174-.232-.058.058-.174-.058-.174,0h.232c.174-.116-.232-.116-.058-.29,0-.058,0-.116-.116-.116,0-.058,0-.116.058-.116l.058.058c.058-.058-.058-.349.058-.407V28.58c.232-.174.116-.116.174-.349l-.058-.058c0,.058.174-.058.058-.058v-.174c.174-.058.232-.581.232-.755,0,.174-.174-.349,0-.29.232-.29.058-.755.116-1.1-.174-.058.116-.174.058-.29-.058,0-.174,0-.174-.058a.447.447,0,0,0,.116-.174c0-.058,0-.174-.058-.116,0-.058,0-.174.058-.174,0-.058,0-.174-.116-.116a.447.447,0,0,0,.116-.174c0-.058-.058-.058-.174-.058.058-.29-.29-.523-.174-.871-.058,0-.058-.058-.058-.116.174-.232-.058-.581.058-.813-.174-.058-.116-.232-.116-.349.058-.058-.116-.174-.116-.232a5.526,5.526,0,0,1-.232-1.046c-.116.116-.232-1.046-.407-1.511-.174-.29-.058-.639-.174-.93.058,0,.174,0,.174-.116-.116-.232.116-.349.174-.581.174,0,.29-.116.465,0,.174-.116.058-.232.058-.349.29-.058.581-.058.871-.116,0,.058,0,.174.116.174.232-.058.349.116.581.116,0,.058,0,.174.116.174a.623.623,0,0,1,.349.116c.058,0,.174,0,.174-.116l.116.058.058-.058a.349.349,0,0,0,.232.058c.116.058.116.29.29.232A11.775,11.775,0,0,0,73.511,19.808Z" transform="translate(-27.698 -7.383)"/><g transform="translate(9.816 2.897)"><path class="a" d="M18.179,17.894c0-.116-.232-.174-.29-.174s-.232.174-.29.058a.641.641,0,0,1-.29.29.579.579,0,0,1-.232.058c-.058.174-.058.232.116.7.058,0,.174.465.232.465-.058-.174.232.349.29.407h.116c.058,0,0,.058,0,.116l.232.174c0,.058.058.058,0,.174.174,0,.29.116.465.174.058,0,0,.058,0,.116.058,0,.116.058.116,0,.116,0,.058.116.058.174h.058c0,.058.116.116.116.116.174.232.93.523,1.1.755l.058-.058c.058.116.407.174.407.29l.058-.058a4.844,4.844,0,0,0,.7.232c.058-.058-.058-.116.058-.174a1.842,1.842,0,0,0,.349.29,1.022,1.022,0,0,1,.349.058c.174.232.581.058.871.174l.116.116L23,22.309l.058.058c.174-.058.232,0,.349-.116l.058.058.058-.058c.058.058.058.058.058.116a.814.814,0,0,0,.639,0c0,.058.058.058.116.058.058-.058.058-.058.174-.058.174.058.174.116.349.058v.058a1.047,1.047,0,0,1,.581-.058c.058-.116.174.058.174-.058l.058.058c.174-.116.465-.058.639-.058v.058c.058-.058.058,0,.058,0,.174-.058.523-.058.639-.174.232.058.174.116.465.058.058,0,.174.058.232.058a.533.533,0,0,1,.639-.058,4.9,4.9,0,0,0,.813-.349c.058,0,.116.058.174.058.058-.058.116,0,.174-.116a3.9,3.9,0,0,0,.7-.349c0,.058.174-.058.174,0,.058-.058.058-.058.058-.116.116.058.174-.116.29-.058.058-.058.058-.058.058-.116.174-.058.116-.116.29-.174.174-.116.349-.465.7-.581,0-.116.232-.174.29-.29,0-.058.058-.058.116,0l-.058-.058c.058-.058.058-.174.116-.116,0-.058.116-.174.058-.174.174-.116.174-.581.407-.581,0-.058,0-.058.058-.116.116-.116.058-.349.116-.407,0-.058,0-.058.058-.058a7.577,7.577,0,0,0,.174-.755c-.058,0,0-.058,0-.116.058,0,.058-.058.116-.116-.058,0,0-.058,0-.116l.058-.058c-.116,0,0-.174-.058-.174l.058-.058c-.058-.232.058-.465-.058-.7l.058-.058a.281.281,0,0,1,0-.407c-.058-.058,0-.116,0-.174-.116-.058,0-.174-.058-.232.058-.174-.116-.29,0-.465a.774.774,0,0,0-.174-.29.213.213,0,0,1,.058-.174c-.058,0-.116,0-.116-.058.058-.116,0-.174,0-.29-.116,0-.058-.116-.058-.174a1.491,1.491,0,0,0-.29-.7c.058-.116-.058-.523-.058-.639l-.116-.058c-.058-.116-.116-.174-.174-.29v-.116c-.058,0-.116,0-.116-.058v-.116l.174.407c-.116-.058-.116-.174-.116-.349a4.676,4.676,0,0,0-.523-.813c-.116.058,0-.174-.116-.116a.958.958,0,0,0-.465-.581v-.116h-.116c-.058,0-.058-.058-.058-.116-.349-.232-1.511-.349-1.685-.7-.116,0-.232-.058-.29.058l-.116-.116c-.29.174-.523-.116-.755-.232h-.058c-.116-.174-.232,0-.349,0a.213.213,0,0,0-.174-.058c-.29.116-.523,0-.755.29V9.818l.581,1.1a10.835,10.835,0,0,0,.29,1.1c.058,0,.116.116.174.232v.116c.058.116.174.29.232.407-.058,0-.058.058-.058.116.058.174.058.407.116.639.058.058,0,.116.058.232l-.058.116a.281.281,0,0,0,0,.232c.058.232,0,.058.174.174-.116.174.116.465-.058.639.058.058.058-.058.116.058,0,.058,0,.058-.058.116,0,.058,0,.058.058.058.058.116-.058.174,0,.29.058,0,0,.174.058.174,0,.116.174.174,0,.232-.058,0,0,.232-.058.349.058.058,0,.29,0,.349.058,0,.058-.058.058,0s0,.058-.058.116c.058,0,.058.116,0,.174,0,.174-.116.232-.174.407-.058.349.116.581-.116.7.058.058,0,.174-.058.232s-.058.174-.116.232a2.832,2.832,0,0,0-.174.407c-.116.058-.174.174-.29.232,0,.058,0,.058-.058.116,0,.058-.058.058-.116,0-.058.116-.407.232-.407.349v.058c-.174.058-.232.116-.407.174-.174.116-.349.116-.523.232-.174-.058-.349.058-.523.058-.058.058-.116.058-.232.116-.116,0-.232.058-.29,0-.116,0-.058.116-.174.116h-.116v-.058c-.116.058-.232,0-.407.058v-.058c-.116.058-.232,0-.349.058a1.619,1.619,0,0,0-.581-.058c0-.058,0-.058-.058-.058l-.058.058c0-.058-.407,0-.407,0h-.116V20.16l-.058.058c-.058-.058-.581-.116-.7-.232-.116.116-.174.058-.29,0a4.045,4.045,0,0,1-.988-.232l-.058-.058a.421.421,0,0,1-.465-.116.213.213,0,0,1-.174-.058c-.058-.116-.407-.116-.465-.232a.816.816,0,0,1-.232-.232c-.116.058-.407-.29-.465-.29h-.174l-.058-.174-.232-.174C18.295,17.894,18.179,18.01,18.179,17.894Z" transform="translate(-17.04 -6.914)"/><path class="a" d="M24.543,8.66h.232c.349.349.988.232,1.452.465.174-.116.349-.058.523-.116l.116.116c.407-.116.581.058.93.058a.447.447,0,0,0,.174-.116c.058,0,.116,0,.116.058l.116-.058.058.058.116-.058c0,.058.058.058.116.058.174-.116.29.058.465-.116.058.058.116.058.174.116.174-.174.29,0,.523-.058l.058.058.116-.058h-.116c0-.058.116-.058.174-.058.116.116.174.232.349.116l.058.058c.116-.058-.813-.116.639-.174.116-.058.116-.058.174-.058.058.058.116.116.174.116l.523-.174c.058,0,.174.116.29,0l.058.058a1.608,1.608,0,0,0,.523-.058c0,.058-.116-.058-.058-.058.232-.116.465-.232.639-.058.232,0,.349-.174.581-.174.058.116.29-.116.407-.058s.116-.116.174,0V8.6c.058-.058.058-.058.058-.116a.435.435,0,0,0,.29-.058.109.109,0,0,0,.174,0c.058.058.174.058.349.058,0,.058.174-.058.116,0,.116,0,.174-.058.29,0,.058-.058.058-.116.116-.058l.058.058c.058,0,.058,0,.116-.058.755-.058,1.162-.407,1.917-.407.116-.058.29-.116.407-.174s.232.116.29-.058c-.058-.058.174-.116.174-.116.174,0,.29-.349.349-.465-.058-.058,0-.058,0-.174h.116c0-.058-.058-.465,0-.523,0-.058-.174-.058-.116-.058l-.058-.058c0-.116.116-.174.116-.232-.058-.174-.174,0-.29-.116l.116-.174c0-.116-.29-.232-.407-.29-.058.116-.058.058-.174.116l-.058-.116c-.116.058-.232,0-.232.058.058.058-.058.058-.058.058-.058.116-.058.116-.116.116a.213.213,0,0,0-.174-.058c-.058.058-.058.058-.058.116a2.94,2.94,0,0,1-1.278-.058c-.116,0-.116,0-.174.058.058.058-.058.116,0,.058.058.058-.174-.058-.174,0-.29,0-.93.058-.813,0-.174,0-.407.058-.523,0-.058.174-.232-.116-.29,0,.116,0-.116-.058-.058,0v.058c-.174.058-.174-.116-.349-.058-.058,0-.116-.058-.058-.116-.058,0-.116-.058-.116,0l.058.058c-.116.058-.232-.174-.349-.058-.058,0-.116-.058-.174-.058a1.251,1.251,0,0,1-.639.116l-.058-.058c.058,0-.116.116-.058.058H32.56a.972.972,0,0,1-.7.058c.116.058-.232-.232-.232-.116-.349.116-.7-.058-1.046-.058,0-.116-.174.058-.29,0,0-.058.058-.116,0-.116-.058.058-.174,0-.232.058-.058,0-.116,0-.116-.058a.213.213,0,0,0-.174.058c-.058,0-.116,0-.116-.058-.058.058-.174.116-.232.174-.058,0-.058-.058-.058-.116-.29.058-.465-.232-.755-.116,0-.058-.058-.058-.116-.058-.232.174-.581,0-.813.116-.058-.116-.174-.058-.349-.058-.29,0-.349-.174-.407-.174a4.485,4.485,0,0,0-.871-.116c.116-.116-.93-.116-1.336-.232-.232-.116-.581,0-.813-.058a.125.125,0,0,1-.116.116c-.174-.058-.29.116-.523.174-.058.116-.174.174-.116.29-.116.116-.116.174-.174.174-.058.29-.116.232-.174.465.058,0,.116,0,.116.058-.058.174.058.29,0,.465.058,0,.116,0,.116.058-.058.116,0,.174.058.29a.125.125,0,0,1-.116.116l.116.116-.058.058a.109.109,0,0,1,0,.174c.058.058.232.058.174.232A7.579,7.579,0,0,0,24.543,8.66Z" transform="translate(-19.454 -5)"/></g></g></svg>