<svg xmlns="http://www.w3.org/2000/svg" width="506.7" height="90.663" viewBox="0 0 506.7 90.663"><defs><style>.a{opacity:0.4;}.b{fill:#fff;}</style></defs><g transform="translate(0 -0.003)"><g class="a" transform="translate(63.617 34.868)"><g transform="translate(17.968 4.662)"><path class="b" d="M107.31,90.914h-2.428V43.128H86.428V90.914H84V40.7h23.31Z" transform="translate(-84 -40.7)"/></g><g transform="translate(23.213 10.392)"><g transform="translate(10.392)"><rect class="b" width="2.428" height="3.302"/></g><g transform="translate(5.245)"><rect class="b" width="2.428" height="3.302"/></g><rect class="b" width="2.428" height="3.302"/><g transform="translate(0 6.41)"><g transform="translate(10.392)"><rect class="b" width="2.428" height="3.302"/></g><g transform="translate(5.245)"><rect class="b" width="2.428" height="3.302"/></g><rect class="b" width="2.428" height="3.302"/></g><g transform="translate(0 12.918)"><g transform="translate(10.392)"><rect class="b" width="2.428" height="3.302"/></g><g transform="translate(5.245)"><rect class="b" width="2.428" height="3.302"/></g><rect class="b" width="2.428" height="3.302"/></g><g transform="translate(0 25.835)"><g transform="translate(10.392)"><rect class="b" width="2.428" height="3.302"/></g><g transform="translate(5.245)"><rect class="b" width="2.428" height="3.302"/></g><rect class="b" width="2.428" height="3.302"/></g><g transform="translate(0 32.343)"><g transform="translate(10.392)"><rect class="b" width="2.428" height="3.302"/></g><g transform="translate(5.245)"><rect class="b" width="2.428" height="3.302"/></g><rect class="b" width="2.428" height="3.302"/></g><g transform="translate(0 19.425)"><g transform="translate(10.392)"><rect class="b" width="2.428" height="3.302"/></g><g transform="translate(5.245)"><rect class="b" width="2.428" height="3.302"/></g><rect class="b" width="2.428" height="3.302"/></g></g><g transform="translate(0 21.465)"><path class="b" d="M67.928,91.411H65.5V86.166h2.914V58H80.651v2.428h-9.81V88.594H67.928Z" transform="translate(-65.5 -58)"/></g><g transform="translate(9.712 27.292)"><rect class="b" width="4.273" height="2.428"/></g><g transform="translate(9.712 32.828)"><rect class="b" width="4.273" height="2.428"/></g><g transform="translate(9.712 38.461)"><rect class="b" width="4.273" height="2.428"/></g><g transform="translate(9.712 43.998)"><rect class="b" width="4.273" height="2.428"/></g><g transform="translate(9.712 49.631)"><rect class="b" width="4.273" height="2.428"/></g><g transform="translate(28.458)"><rect class="b" width="2.428" height="5.536"/></g></g><g transform="translate(323.231 62.16)"><g transform="translate(0 3.496)"><path class="b" d="M369.707,79.061h-2.428a.664.664,0,0,0-.68-.68h-2.428l-.291-.777c-1.748-4.468-4.176-7.576-5.827-7.576h-13.6c-1.651,0-3.982,3.108-5.827,7.576l-.291.777h-2.428a.664.664,0,0,0-.68.68H332.8a3.068,3.068,0,0,1,3.108-3.108h.777c1.263-3.011,4.079-8.353,7.77-8.353h13.6c3.691,0,6.41,5.342,7.673,8.353h.777A3.151,3.151,0,0,1,369.707,79.061Z" transform="translate(-332.8 -67.6)"/><g transform="translate(2.525 13.015)"><path class="b" d="M367.257,92.072h-8.644V89.353H344.044v2.719H335.4V81h2.428v8.644h3.788V86.925h19.425v2.719h3.788V81h2.428Z" transform="translate(-335.4 -81)"/></g><g transform="translate(8.061 8.353)"><rect class="b" width="20.882" height="2.428"/></g></g><g transform="translate(14.86)"><rect class="b" width="7.284" height="2.428"/></g><g transform="translate(6.702 17.385)"><rect class="b" width="5.633" height="2.428"/></g><g transform="translate(24.475 17.385)"><rect class="b" width="5.633" height="2.428"/></g></g><g transform="translate(189.005 66.142)"><path class="b" d="M240.054,87.719H194.6V72.276a4.145,4.145,0,0,1,4.176-4.176h37a4.145,4.145,0,0,1,4.176,4.176V87.719Zm-43.026-2.428h40.6V72.276a1.741,1.741,0,0,0-1.748-1.748h-37a1.741,1.741,0,0,0-1.748,1.748V85.291Z" transform="translate(-194.6 -68.1)"/><g transform="translate(2.525 21.173)"><rect class="b" width="3.691" height="2.428"/></g><g transform="translate(9.13 21.173)"><rect class="b" width="3.691" height="2.428"/></g><g transform="translate(38.753 21.173)"><rect class="b" width="3.691" height="2.428"/></g><g transform="translate(31.663 8.741)"><rect class="b" width="2.428" height="9.615"/></g><g transform="translate(36.422 9.227)"><rect class="b" width="7.867" height="2.428"/></g><g transform="translate(40.598 13.5)"><rect class="b" width="3.691" height="2.428"/></g><g transform="translate(1.263 13.5)"><rect class="b" width="3.691" height="2.428"/></g><g transform="translate(1.263 5.148)"><path class="b" d="M223.095,79.907H195.9V77.479h24.767V73.4h2.428Z" transform="translate(-195.9 -73.4)"/></g><g transform="translate(19.522 5.148)"><rect class="b" width="2.428" height="5.342"/></g><g transform="translate(13.015 5.148)"><rect class="b" width="2.428" height="5.342"/></g><g transform="translate(6.507 5.148)"><rect class="b" width="2.428" height="5.342"/></g></g><g class="a" transform="translate(304.195 34.285)"><g transform="translate(4.079 9.907)"><rect class="b" width="6.022" height="2.428"/></g><g transform="translate(0 4.953)"><rect class="b" width="27.486" height="2.428"/></g><g transform="translate(6.702)"><rect class="b" width="13.5" height="2.428"/></g><g transform="translate(17.968 9.907)"><rect class="b" width="3.302" height="2.428"/></g></g><g class="a" transform="translate(310.896 78.865)"><g transform="translate(0.486 1.166)"><path class="b" d="M328.953,92.112H320.6V82.4h8.353Zm-5.925-2.428h3.5V84.828h-3.5Z" transform="translate(-320.6 -82.4)"/></g><g transform="translate(0 1.166)"><rect class="b" width="9.421" height="2.428"/></g><g transform="translate(3.496)"><rect class="b" width="2.428" height="2.428"/></g></g><g class="a" transform="translate(16.803 58.663)"><path class="b" d="M17.688,80.7,17.3,78.271,30.218,76.62,39.736,70.5l6.7-1.748V64.188L62.56,60.4l.583,2.331-14.277,3.3V70.7l-8.158,2.04-9.615,6.216Z" transform="translate(-17.3 -60.4)"/></g><g class="a" transform="translate(110.528 27.584)"><path class="b" d="M252.3,60.937H224.425L215.2,54.818H201.212L188.489,49.67l-18.551,3.205-10.781-5.73L148.668,31.411l-10.2,4.662-4.662,7.673-10,7.381h-10V48.7h9.227l8.935-6.6,4.856-7.867L149.542,28.4l11.266,16.9,9.615,5.05,18.357-3.205L201.6,52.39h14.374l9.227,6.119h27.1Z" transform="translate(-113.8 -28.4)"/></g><g class="a"><g transform="translate(124.223 58.372)"><path class="b" d="M134.6,84.187a6.715,6.715,0,0,1-6.7-6.7c0-3.205,5.05-13.792,5.536-15.054L134.5,60.1l1.068,2.331c.583,1.165,5.536,11.849,5.536,15.054A6.433,6.433,0,0,1,134.6,84.187Zm0-18.259c-1.942,4.371-4.273,9.907-4.273,11.655a4.273,4.273,0,1,0,8.547,0C138.875,75.834,136.544,70.2,134.6,65.927Z" transform="translate(-127.9 -60.1)"/><g transform="translate(5.439 16.997)"><rect class="b" width="2.428" height="13.209"/></g></g><g transform="translate(141.705 58.372)"><path class="b" d="M152.6,84.187a6.715,6.715,0,0,1-6.7-6.7c0-3.205,5.05-13.792,5.536-15.054L152.5,60.1l1.068,2.331c.583,1.165,5.536,11.849,5.536,15.054A6.433,6.433,0,0,1,152.6,84.187Zm0-18.259c-1.942,4.371-4.273,9.907-4.273,11.655a4.273,4.273,0,1,0,8.547,0C156.875,75.834,154.544,70.2,152.6,65.927Z" transform="translate(-145.9 -60.1)"/><g transform="translate(5.536 16.997)"><rect class="b" width="2.428" height="13.209"/></g></g><g transform="translate(159.77 68.279)"><g transform="translate(5.827 7.09)"><rect class="b" width="2.428" height="13.209"/></g><path class="b" d="M171.59,84.48a7.09,7.09,0,1,1,7.09-7.09A7.13,7.13,0,0,1,171.59,84.48Zm0-11.752a4.662,4.662,0,1,0,4.662,4.662A4.663,4.663,0,0,0,171.59,72.728Z" transform="translate(-164.5 -70.3)"/></g><g transform="translate(111.111 87.315)"><rect class="b" width="64.685" height="2.428"/></g></g><g class="a" transform="translate(62.16 18.357)"><g transform="translate(4.856)"><rect class="b" width="8.644" height="2.428"/></g><g transform="translate(12.529 4.953)"><rect class="b" width="8.353" height="2.428"/></g><g transform="translate(0 4.953)"><rect class="b" width="5.925" height="2.428"/></g><g transform="translate(7.77 10.004)"><rect class="b" width="9.518" height="2.428"/></g></g><g class="a" transform="translate(208.818 25.253)"><g transform="translate(6.41)"><path class="b" d="M227.525,35.13H221.6V32.7h3.691a3.963,3.963,0,0,1,3.788-2.817,3.789,3.789,0,0,1,3.205,1.651h.389a7.071,7.071,0,0,1,6.9-5.536,7.147,7.147,0,0,1,5.925,3.108h.486a5.4,5.4,0,0,1,4.565-1.651,5.8,5.8,0,0,1,5.148,5.827h-2.428a3.374,3.374,0,0,0-2.914-3.4,3.3,3.3,0,0,0-2.914,1.263l-.486.583-.68-.1a2.689,2.689,0,0,0-.874.1l-1.068.486-.486-1.068A4.655,4.655,0,0,0,235,32.993l-.1,1.554-1.554-.486a1.226,1.226,0,0,0-1.165.1l-1.166.583-.486-1.263a1.578,1.578,0,0,0-1.457-1.068,1.534,1.534,0,0,0-1.554,1.554V35.13Z" transform="translate(-221.6 -26)"/></g><g transform="translate(0 6.702)"><rect class="b" width="3.302" height="2.428"/></g></g><g class="a" transform="translate(370.337 77.506)"><g transform="translate(76.923)"><path class="b" d="M514.4,84.85a8.141,8.141,0,0,1-4.856-1.651,8.013,8.013,0,0,1-9.615,0,8.013,8.013,0,0,1-9.615,0,8.013,8.013,0,0,1-9.615,0,7.726,7.726,0,0,1-4.856,1.651A7.929,7.929,0,0,1,470.99,83.2a8.006,8.006,0,0,1-10.489-.777l1.748-1.748a5.629,5.629,0,0,0,7.867,0l.874-.874.874.874a5.629,5.629,0,0,0,7.867,0l.874-.874.874.874a5.629,5.629,0,0,0,7.867,0l.874-.874.874.874a5.629,5.629,0,0,0,7.867,0l.874-.874.874.874a5.629,5.629,0,0,0,7.867,0l.874-.874.874.874a5.629,5.629,0,0,0,7.867,0l1.748,1.748A7.019,7.019,0,0,1,514.4,84.85Z" transform="translate(-460.5 -79.8)"/></g><g transform="translate(0 8.158)"><path class="b" d="M492.8,93.153a8.247,8.247,0,0,1-4.856-1.554,8.013,8.013,0,0,1-9.615,0,8.013,8.013,0,0,1-9.615,0,8.013,8.013,0,0,1-9.615,0,8.013,8.013,0,0,1-9.615,0,8.013,8.013,0,0,1-9.615,0,8.013,8.013,0,0,1-9.615,0,8.013,8.013,0,0,1-9.615,0,8.013,8.013,0,0,1-9.615,0,8.013,8.013,0,0,1-9.615,0,8.013,8.013,0,0,1-9.615,0,8.006,8.006,0,0,1-10.489-.777l1.748-1.748a5.629,5.629,0,0,0,7.867,0l.874-.874.874.874a5.629,5.629,0,0,0,7.867,0l.874-.874.874.874a5.5,5.5,0,0,0,3.982,1.651,5.667,5.667,0,0,0,3.982-1.651l.874-.874.874.874a5.629,5.629,0,0,0,7.867,0l.874-.874.874.874a5.5,5.5,0,0,0,3.982,1.651,5.667,5.667,0,0,0,3.982-1.651l.874-.874.874.874a5.629,5.629,0,0,0,7.867,0l.874-.874.874.874a5.629,5.629,0,0,0,7.867,0l.874-.874.874.874a5.629,5.629,0,0,0,7.867,0l.874-.874.874.874a5.5,5.5,0,0,0,3.982,1.651,5.667,5.667,0,0,0,3.982-1.651L469,88.2l.874.874a5.629,5.629,0,0,0,7.867,0l.874-.874.874.874a5.5,5.5,0,0,0,3.982,1.651,5.667,5.667,0,0,0,3.982-1.651l.874-.874.874.874a5.629,5.629,0,0,0,7.867,0l.874-.874.874.874a5.629,5.629,0,0,0,7.867,0l1.748,1.748a8.12,8.12,0,0,1-10.489.777A10.525,10.525,0,0,1,492.8,93.153Z" transform="translate(-381.3 -88.2)"/></g></g><g transform="translate(401.708 67.696)"><path class="b" d="M444.389,82.52V80.092c6.313,0,9.712-2.622,13.5-7.964H416.125a9.2,9.2,0,0,0,9.033,7.964V82.52A11.523,11.523,0,0,1,413.6,70.963V69.7h48.854l-1.263,1.845C456.432,78.635,452.353,82.52,444.389,82.52Z" transform="translate(-413.6 -69.7)"/></g><g transform="translate(404.525 53.613)"><path class="b" d="M450.2,71.711H416.5l1.457-8.838,3.788-3.594.1-4.079h15.54l4.662,7.09h3.205Zm-30.886-2.428h26.806l-2.428-4.662h-3.011l-4.662-7.09H424.173l-.1,2.719-3.982,3.788Z" transform="translate(-416.5 -55.2)"/></g><g transform="translate(413.072 60.703)"><rect class="b" width="2.817" height="2.428"/></g><g transform="translate(417.539 60.703)"><rect class="b" width="2.817" height="2.428"/></g><g transform="translate(422.104 60.703)"><rect class="b" width="2.817" height="2.428"/></g><g class="a" transform="translate(0 32.828)"><g transform="translate(0 7.09)"><rect class="b" width="17.191" height="2.428"/></g><g transform="translate(0 11.752)"><rect class="b" width="17.191" height="2.428"/></g><g transform="translate(4.565 16.317)"><rect class="b" width="8.061" height="2.428"/></g><g transform="translate(7.381 22.921)"><rect class="b" width="2.428" height="32.731"/></g><g transform="translate(7.381)"><rect class="b" width="2.428" height="3.594"/></g><g transform="translate(1.457 54.39)"><rect class="b" width="23.504" height="2.428"/></g></g><g class="a" transform="translate(369.657 75.175)"><rect class="b" width="27.098" height="2.428"/><g transform="translate(3.399 1.263)"><rect class="b" width="2.428" height="5.05"/><g transform="translate(8.935)"><rect class="b" width="2.428" height="5.05"/></g><g transform="translate(17.774)"><rect class="b" width="2.428" height="5.05"/></g></g></g><g class="a" transform="translate(356.739 4.662)"><g transform="translate(7.576 7.479)"><path class="b" d="M386.269,34.839a11.169,11.169,0,1,1,11.169-11.169A11.234,11.234,0,0,1,386.269,34.839Zm0-19.813a8.741,8.741,0,1,0,8.741,8.741A8.7,8.7,0,0,0,386.269,15.025Z" transform="translate(-375.1 -12.5)"/></g><g transform="translate(17.58)"><rect class="b" width="2.428" height="3.594"/></g><g transform="translate(8.393 1.831)"><rect class="b" width="2.428" height="3.594" transform="translate(0 1.214) rotate(-29.998)"/></g><g transform="translate(1.96 8.289)"><rect class="b" width="2.428" height="3.594" transform="matrix(0.5, -0.866, 0.866, 0.5, 0, 2.103)"/></g><g transform="translate(0 17.482)"><rect class="b" width="3.594" height="2.428"/></g><g transform="translate(1.957 25.202)"><rect class="b" width="3.594" height="2.428" transform="translate(0 1.796) rotate(-29.988)"/></g><g transform="translate(8.397 31.149)"><rect class="b" width="3.594" height="2.428" transform="matrix(0.5, -0.866, 0.866, 0.5, 0, 3.112)"/></g><g transform="translate(17.58 33.799)"><rect class="b" width="2.428" height="3.594"/></g><g transform="translate(25.303 31.188)"><rect class="b" width="2.428" height="3.594" transform="matrix(0.866, -0.5, 0.5, 0.866, 0, 1.214)"/></g><g transform="translate(31.201 25.198)"><rect class="b" width="2.428" height="3.594" transform="translate(0 2.103) rotate(-60.007)"/></g><g transform="translate(33.897 17.482)"><rect class="b" width="3.594" height="2.428"/></g><g transform="translate(31.194 8.315)"><rect class="b" width="3.594" height="2.428" transform="translate(0 1.796) rotate(-29.988)"/></g><g transform="translate(25.245 1.849)"><rect class="b" width="3.594" height="2.428" transform="matrix(0.5, -0.866, 0.866, 0.5, 0, 3.112)"/></g></g><g transform="translate(19.813 0.003)"><path class="b" d="M29.433,12.821a5.627,5.627,0,0,1-4.662-2.428L20.4,4.079l4.856-1.36,5.148,3.3L51.48.194A5.675,5.675,0,0,1,57.4,2.137a2.223,2.223,0,0,1,.389,2.04,2.189,2.189,0,0,1-1.457,1.457l-25.35,6.993A7.549,7.549,0,0,1,29.433,12.821Zm-5.05-7.381L26.81,9.033a3.087,3.087,0,0,0,3.5,1.263L55.268,3.4a3.229,3.229,0,0,0-3.205-.874L30.015,8.644l-5.148-3.3Z" transform="translate(-20.4 -0.003)"/><g transform="translate(15.831 6.602)"><path class="b" d="M37.283,20.4,36.7,17.969l2.331-.583L45.344,6.8l2.04,1.263-6.8,11.364Z" transform="translate(-36.7 -6.8)"/></g><g transform="translate(11.169 0.094)"><path class="b" d="M44.915,4.471l-9.81-1.845-2.525.68L31.9.974,35.008.1,45.4,2.14Z" transform="translate(-31.9 -0.1)"/></g></g><g class="a" transform="translate(243.298 58.178)"><g transform="translate(0 29.235)"><rect class="b" width="59.44" height="2.428"/></g><g transform="translate(23.893 5.245)"><path class="b" d="M308.9,91.718H275.1V65.3h33.8ZM277.528,89.29h28.943V67.728H277.528Z" transform="translate(-275.1 -65.3)"/></g><g transform="translate(23.019)"><rect class="b" width="35.451" height="2.428"/></g><g transform="translate(10.101 2.137)"><path class="b" d="M270.807,72.007H260.9V62.1h9.907Zm-7.479-2.428h5.05v-5.05h-5.05Z" transform="translate(-260.9 -62.1)"/></g><g transform="translate(13.889 10.878)"><rect class="b" width="2.428" height="19.522"/></g><g transform="translate(30.206 21.367)"><rect class="b" width="22.242" height="2.428"/><g transform="translate(2.137 1.263)"><rect class="b" width="2.428" height="3.982"/></g><g transform="translate(17.58 1.263)"><rect class="b" width="2.428" height="3.982"/></g></g></g><g class="a" transform="translate(433.759 42.055)"><g transform="translate(6.507)"><path class="b" d="M459.225,52.43H453.3V50h3.691a3.963,3.963,0,0,1,3.788-2.817,3.79,3.79,0,0,1,3.205,1.651h.388a7.071,7.071,0,0,1,6.9-5.536,7.147,7.147,0,0,1,5.925,3.108h.486a5.4,5.4,0,0,1,4.565-1.651,5.8,5.8,0,0,1,5.148,5.827h-2.428a3.374,3.374,0,0,0-2.914-3.4,3.3,3.3,0,0,0-2.914,1.263l-.486.583-.68-.1a2.689,2.689,0,0,0-.874.1l-1.068.486-.486-1.068a4.655,4.655,0,0,0-8.838,1.845l-.1,1.554-1.554-.486a1.226,1.226,0,0,0-1.165.1l-1.165.583-.486-1.263a1.579,1.579,0,0,0-1.457-1.068,1.534,1.534,0,0,0-1.554,1.554V52.43Z" transform="translate(-453.3 -43.3)"/></g><g transform="translate(0 6.702)"><rect class="b" width="3.302" height="2.428"/></g></g></g></svg>